<?xml version="1.0" encoding="UTF-8"?>
<svg width="56px" height="38px" viewBox="0 0 56 38" version="1.1" xmlns="http://www.w3.org/2000/svg" xmlns:xlink="http://www.w3.org/1999/xlink">
    <!-- Generator: Sketch 54.1 (76490) - https://sketchapp.com -->
    <title>Combined Shape</title>
    <desc>Created with Sketch.</desc>
    <g id="Page-1" stroke="none" stroke-width="1" fill="none" fill-rule="evenodd">
        <g id="190517_Web" transform="translate(-372.000000, -21.000000)" fill="#FFFFFF" fill-rule="nonzero">
            <g id="bar" transform="translate(2.000000, 0.000000)">
                <path d="M409.008706,22.0742369 L424.908032,37.8775292 C425.607183,38.5720059 426,39.5141895 426,40.4966473 C426,41.479105 425.607183,42.4212887 424.908032,43.1157654 L410.107875,57.8265282 C408.533594,59.3911573 405.981333,59.3911573 404.407051,57.8265282 L398.599282,52.0538383 L401.757164,48.9150304 L407.261919,54.365867 L421.224331,40.487789 L406.409321,25.7563567 L400.910507,31.2219573 L400.476781,31.6501107 L400.046026,32.0782642 L396.885173,35.2170721 L396.454418,35.6452255 L396.014751,36.073379 L392.414231,39.6285292 L386.145999,45.8589004 L383,42.7319037 L392.856869,32.9434295 L393.287624,32.515276 L393.718379,32.0782642 L396.876261,28.9424091 L397.307016,28.5142556 L397.737772,28.0861022 L403.783199,22.0742369 C405.226996,20.641921 407.564909,20.641921 409.008706,22.0742369 Z M402.398362,46.1009291 L401.994824,46.5251444 L398.916403,49.6263045 L398.498453,50.0505198 L398.080502,50.4747351 L389.68114,59 L370,39.0238475 L386.41248,22.3741281 C388.218886,20.5419573 391.146277,20.5419573 392.952683,22.3741281 L397.244602,26.7362317 L394.180593,29.8432431 L389.68114,25.2880484 L376.133782,39.0384756 L389.68114,52.7889028 L395.016494,47.373575 L395.434444,46.9493597 L395.852394,46.5251444 L398.916403,43.4122817 L399.334354,42.990992 L399.752304,42.5667767 L403.240028,39.0384756 L398.916403,34.6500414 L401.994824,31.5401044 L407.036171,36.6716468 C407.653284,37.297714 408,38.1470216 408,39.0326244 C408,39.9182271 407.653284,40.7675347 407.036171,41.393602 L402.816313,45.6767137 L402.398362,46.1009291 Z" id="Combined-Shape"></path>
            </g>
        </g>
    </g>
</svg>