<?xml version="1.0" encoding="UTF-8"?>
<svg width="317px" height="69px" viewBox="0 0 317 69" version="1.1" xmlns="http://www.w3.org/2000/svg" xmlns:xlink="http://www.w3.org/1999/xlink">
    <!-- Generator: Sketch 54.1 (76490) - https://sketchapp.com -->
    <title>Combined Shape</title>
    <desc>Created with Sketch.</desc>
    <g id="Page-1" stroke="none" stroke-width="1" fill="none" fill-rule="evenodd">
        <g id="190517_Web" transform="translate(-374.000000, -303.000000)" fill="#FFFFFF" fill-rule="nonzero">
            <path d="M405.985967,352.073511 L405.985967,356.262904 C405.998488,358.309687 405.588621,360.337715 404.781137,362.224418 C403.990697,364.077071 402.86454,365.773264 401.457466,367.230456 C400.036133,368.691457 398.343989,369.872244 396.471961,370.709367 C394.53628,371.573599 392.432555,372.013868 390.306553,371.999667 C388.375133,371.989078 386.453362,371.731021 384.58984,371.23202 C382.662772,370.733758 380.872096,369.821724 379.34675,368.561589 C377.731097,367.213483 376.42541,365.543295 375.51622,363.661714 C374.426529,361.248877 373.912121,358.623252 374.012259,355.985244 L374.012259,318.607369 C373.993797,316.489861 374.38869,314.388519 375.175544,312.417195 C375.927004,310.55892 377.058191,308.871827 378.499214,307.460155 C379.956191,306.045632 381.688605,304.934599 383.592739,304.193572 C385.675,303.379309 387.899509,302.974233 390.140369,303.001269 C394.793507,303.001269 398.576952,304.495731 401.490703,307.484654 C402.928019,308.98985 404.056512,310.753336 404.814373,312.678521 C405.63431,314.761331 406.043203,316.978542 406.019204,319.211687 L406.019204,323.025423 L396.098048,323.025423 L396.098048,319.75884 C396.136299,317.965961 395.54995,316.214078 394.436213,314.793634 C393.386949,313.42067 391.720123,312.639705 389.974186,312.703021 C387.51467,312.703021 385.883301,313.44889 385.080081,314.94063 C384.206889,316.705667 383.790199,318.655154 383.866942,320.616318 L383.866942,355.315595 C383.805805,357.058147 384.261969,358.780525 385.179791,360.272634 C386.010709,361.603767 387.61438,362.273416 389.882785,362.273416 C390.590804,362.261536 391.293323,362.148753 391.968388,361.938592 C392.742508,361.71182 393.464783,361.340248 394.095537,360.844286 C394.731015,360.257996 395.227453,359.541463 395.549642,358.745507 C395.966799,357.681025 396.164511,356.545666 396.131285,355.405426 L396.131285,352.073511 L405.985967,352.073511 Z M415.632874,319.562722 C415.584026,317.07388 416.062601,314.603564 417.035986,312.320113 C417.901075,310.319838 419.177978,308.532143 420.780289,307.078 C422.27683,305.743206 424.006719,304.707229 425.879597,304.024183 C431.585156,301.930567 437.953995,303.094563 442.588652,307.078 C444.141834,308.554753 445.383133,310.338434 446.236742,312.320113 C447.210126,314.603564 447.688701,317.07388 447.639853,319.562722 L447.639853,355.400162 C447.70935,357.925094 447.230228,360.43448 446.236742,362.748919 C445.380971,364.674847 444.138207,366.396656 442.588652,367.803231 C441.068107,369.176987 439.304961,370.243807 437.39313,370.946866 C433.679126,372.351045 429.593601,372.351045 425.879597,370.946866 C423.990454,370.256919 422.256458,369.187941 420.780289,367.803231 C419.182259,366.419515 417.903758,364.693709 417.035986,362.748919 C416.042499,360.43448 415.563377,357.925094 415.632874,355.400162 L415.632874,319.562722 Z M425.18205,355.400162 C425.18205,357.751764 425.815455,359.482805 427.0983,360.593283 C429.726969,362.824655 433.545759,362.824655 436.174427,360.593283 C437.457272,359.504579 438.098695,357.773538 438.098695,355.400162 L438.098695,319.562722 C438.098695,317.211119 437.457272,315.480079 436.174427,314.3696 C433.542279,312.148036 429.730448,312.148036 427.0983,314.3696 C425.815455,315.480079 425.18205,317.211119 425.18205,319.562722 L425.18205,355.400162 Z M486.046065,323.146742 L476.24662,323.146742 L476.24662,320.958755 C476.300821,318.92165 475.749379,316.913894 474.661295,315.186717 C473.609888,313.553891 471.835638,312.737478 469.338546,312.737478 C468.193785,312.683969 467.056493,312.94678 466.052898,313.496742 C465.250378,313.977166 464.563464,314.62646 464.040439,315.398984 C463.51769,316.265134 463.161186,317.220175 462.989032,318.215608 C462.796463,319.293598 462.700256,320.386411 462.701538,321.48126 C462.701538,322.812013 462.750822,323.930498 462.841178,324.812224 C462.92067,325.646649 463.166387,326.457019 463.56402,327.196149 C463.960329,327.920488 464.52323,328.541505 465.206844,329.008586 C466.156979,329.622829 467.170307,330.134619 468.22964,330.535278 L475.712703,333.490692 C477.617172,334.163985 479.396321,335.146079 480.977953,336.397122 C482.283146,337.458271 483.36124,338.768539 484.148603,340.250591 C484.885217,341.90344 485.369703,343.656236 485.586074,345.45114 C485.857943,347.647623 485.986899,349.859256 485.972138,352.072248 C485.993487,354.750173 485.70129,357.421473 485.101441,360.032274 C484.617231,362.278995 483.672093,364.40234 482.325069,366.269668 C480.940744,368.077758 479.129549,369.519017 477.051604,370.46603 C474.542795,371.547645 471.825714,372.068803 469.092122,371.992722 C466.841533,372.00563 464.609822,371.584186 462.520827,370.751774 C460.544521,369.976632 458.747525,368.809999 457.239148,367.32284 C455.762622,365.853894 454.575781,364.123234 453.739933,362.22026 C452.867238,360.221907 452.427827,358.063261 452.450317,355.884896 L452.450317,352.260023 L462.282617,352.260023 L462.282617,355.313407 C462.270142,357.04511 462.826779,358.733525 463.867942,360.122079 C464.91935,361.553523 466.6936,362.269245 469.190692,362.269245 C470.524522,362.335499 471.855361,362.089408 473.07597,361.550801 C473.980566,361.093069 474.729182,360.380248 475.22807,359.501605 C475.76635,358.517894 476.07779,357.427516 476.139837,356.309431 C476.238406,355.068484 476.287691,353.688746 476.287691,352.170218 C476.302592,350.70364 476.236781,349.23735 476.090552,347.777917 C476.018887,346.817469 475.759403,345.880139 475.326639,345.018442 C474.878948,344.316352 474.271106,343.728991 473.552389,343.303975 C472.615225,342.755245 471.637703,342.277646 470.628163,341.875252 L463.629733,339.017807 C459.407676,337.30334 456.579281,335.030991 455.144548,332.20076 C453.601142,328.878959 452.861311,325.244254 452.984234,321.587393 C452.972712,319.135153 453.327033,316.694764 454.035642,314.345811 C454.678226,312.182187 455.756988,310.171123 457.206292,308.434983 C458.592828,306.750176 460.345172,305.399258 462.331902,304.483544 C464.667312,303.444165 467.207708,302.939178 469.76568,303.005837 C472.055547,302.980255 474.325226,303.433653 476.427331,304.33659 C478.374103,305.179349 480.145756,306.375412 481.651511,307.863494 C484.474851,310.630355 486.0663,314.405419 486.070707,318.346234 L486.046065,323.146742 Z M495.676768,372 L495.676768,304.604651 L505.226778,304.604651 L517.990734,340.280726 L518.191084,340.280726 L530.854865,304.604651 L540.505051,304.604651 L540.505051,372 L530.562688,372 L530.562688,331.013055 L530.370686,331.013055 L520.528499,359.975541 L515.519752,359.975541 L505.77774,331.013055 L505.585738,331.013055 L505.585738,372 L495.676768,372 Z M551.712121,372 L551.712121,304.604651 L561.318182,304.604651 L561.318182,372 L551.712121,372 Z M602.910418,352.073533 L602.910418,356.262927 C602.92008,358.310252 602.507388,360.338257 601.69727,362.224443 C600.909961,364.07873 599.783444,365.775454 598.373578,367.230484 C596.952235,368.691485 595.26008,369.872273 593.38804,370.709396 C591.45506,371.572968 589.354173,372.013234 587.230901,371.999697 C585.296699,371.989632 583.3721,371.731571 581.505842,371.23205 C579.5813,370.733687 577.793343,369.821597 576.271027,368.561617 C574.653511,367.215246 573.347484,365.544636 572.440472,363.661741 C571.350774,361.248902 570.836363,358.623276 570.936502,355.985267 L570.936502,318.607376 C570.91388,316.489512 571.308921,314.387395 572.099794,312.417199 C572.845066,310.555757 573.97705,308.867485 575.423486,307.460157 C576.879026,306.043871 578.61184,304.932588 580.517044,304.193573 C582.599318,303.37931 584.823842,302.974233 587.064717,303.001269 C591.717885,303.001269 595.498585,304.495732 598.406815,307.484656 C599.846976,308.987699 600.975845,310.75176 601.730507,312.678525 C602.553287,314.760791 602.965006,316.978021 602.943655,319.211694 L602.943655,323.025431 L593.014125,323.025431 L593.014125,319.758847 C593.048385,317.966556 592.462456,316.215938 591.352279,314.793639 C590.300243,313.424 588.635283,312.643914 586.890223,312.703025 C584.397454,312.703025 582.802082,313.446173 581.987777,314.940635 C581.118464,316.706978 580.701977,318.655502 580.77463,320.616325 L580.77463,355.315618 C580.713493,357.058171 581.16966,358.780549 582.087488,360.272659 C582.957187,361.60107 584.524862,362.267998 586.790512,362.273442 C587.498652,362.262844 588.201364,362.150031 588.876129,361.938617 C589.635618,361.707056 590.34339,361.335694 590.961745,360.844312 C591.597228,360.25802 592.093669,359.541487 592.415861,358.745531 C592.836944,357.682114 593.034794,356.545968 592.997507,355.405449 L592.997507,352.073533 L602.910418,352.073533 Z M620.555556,372 L620.555556,304.611974 L635.003695,304.611974 C637.774993,304.538298 640.532237,305.021216 643.104291,306.030755 C645.195431,306.883549 647.067822,308.176358 648.587772,309.816872 C650.003209,311.388346 651.044513,313.246146 651.636919,315.256883 C652.255124,317.33256 652.565681,319.483897 652.559141,321.645449 L652.559141,324.077644 C652.587274,325.634132 652.442417,327.189009 652.127109,328.71503 C651.872174,329.878609 651.42906,330.995173 650.814397,332.022816 C649.558282,333.9337 647.822235,335.499371 645.771257,336.571021 C647.982964,337.535167 649.795457,339.200952 650.914097,341.297587 C652.021871,343.378466 652.575758,346.218729 652.575758,349.818378 L652.575758,353.604496 C652.575758,359.549862 651.105188,364.092663 648.164048,367.232897 C645.222909,370.373132 640.51487,371.951356 634.039932,371.967571 L620.555556,372 Z M630.450745,313.700278 L630.450745,332.249821 L634.912304,332.249821 C638.235626,332.249821 640.420709,331.439089 641.558947,329.817625 C642.697185,328.196162 643.262149,325.861254 643.262149,322.764259 C643.262149,319.667263 642.630718,317.47018 641.367856,315.954112 C640.104994,314.438043 637.828519,313.684063 634.530122,313.684063 L630.450745,313.700278 Z M630.450745,340.762504 L630.450745,362.344184 L634.712905,362.344184 C636.326197,362.431456 637.938351,362.154003 639.423713,361.533453 C640.503559,361.013653 641.398104,360.188772 641.990979,359.166116 C642.605025,358.054185 642.96766,356.826725 643.054442,355.566467 C643.187375,354.180115 643.253841,352.664047 643.253841,351.026369 C643.267003,349.537829 643.169819,348.050309 642.96305,346.575451 C642.813166,345.425523 642.413802,344.319981 641.79158,343.332524 C641.140338,342.443007 640.227736,341.767339 639.174464,341.394875 C637.769123,340.9401 636.292417,340.731501 634.812605,340.778719 L630.450745,340.762504 Z M690.999001,352.080331 L690.999001,356.26829 C691.011535,358.314373 690.601242,360.341706 689.792918,362.227763 C689.001658,364.079782 687.87433,365.775395 686.465794,367.232088 C685.042984,368.692589 683.349082,369.872972 681.475109,370.709809 C679.537416,371.573745 677.431505,372.013863 675.303294,371.999667 C673.369868,371.989082 671.4461,371.731113 669.580641,371.232283 C667.651571,370.734192 665.859035,369.822469 664.332104,368.562765 C662.714772,367.215121 661.407729,365.545505 660.497593,363.664568 C659.40677,361.252557 658.891828,358.62783 658.99207,355.990725 L658.99207,318.625643 C658.973588,316.508859 659.368892,314.408236 660.156563,312.437587 C660.908804,310.579948 662.041167,308.893433 663.483687,307.482244 C664.942178,306.068204 666.676392,304.957552 668.582504,304.216779 C670.654841,303.398608 672.87,302.985417 675.103667,303.000393 C679.76164,303.000393 683.549016,304.494343 686.465794,307.482244 C687.904604,308.986924 689.03427,310.749806 689.792918,312.674333 C690.613707,314.756429 691.023025,316.972882 690.999001,319.205263 L690.999001,323.017693 L681.100807,323.017693 L681.100807,319.752228 C681.139098,317.959963 680.55214,316.208679 679.437246,314.788721 C678.386891,313.416228 676.718333,312.63553 674.970582,312.698824 C672.475239,312.698824 670.87822,313.441717 670.071392,314.935667 C669.197292,316.7001 668.78017,318.64892 668.856992,320.609413 L668.856992,355.296814 C668.795792,357.03877 669.25243,358.760558 670.171206,360.252157 C671.044576,361.582834 672.608324,362.252254 674.879086,362.252254 C675.587841,362.240378 676.29109,362.127634 676.966856,361.917544 C677.72713,361.686062 678.435632,361.314827 679.054626,360.823613 C679.690765,360.237523 680.187719,359.521236 680.510243,358.725552 C680.927833,357.661435 681.12575,356.526465 681.09249,355.386614 L681.09249,352.05584 L690.999001,352.080331 Z" id="Combined-Shape"></path>
        </g>
    </g>
</svg>