<svg xmlns="http://www.w3.org/2000/svg" width="10" height="15" viewBox="0 0 10 15">
    <g fill="#FFF" fill-rule="evenodd" opacity="1.0">
        <path d="M4.962 1.18C2.758 1.18.964 2.877.964 4.96v.023c-.002.019-.097 2.049 1.68 4.188 1.229 1.478 2.059 1.904 2.318 2.01.26-.106 1.09-.532 2.318-2.01 1.79-2.154 1.682-4.168 1.68-4.188v-.024c0-2.083-1.794-3.778-3.998-3.778zm0 11.125a.391.391 0 0 1-.082-.01c-.119-.024-1.209-.308-2.946-2.438C-.07 7.402-.008 5.093.003 4.872.009 2.228 2.23.079 4.963.079c2.73 0 4.953 2.149 4.959 4.793.01.22.071 2.53-1.931 4.985-1.738 2.13-2.828 2.414-2.947 2.439a.393.393 0 0 1-.082.009z"/>
        <path d="M4.962 4.038a1.001 1.001 0 0 0 0 2 1.001 1.001 0 0 0 0-2m0 2.921a1.923 1.923 0 0 1-1.921-1.92c0-1.06.862-1.922 1.921-1.922 1.06 0 1.921.862 1.921 1.921 0 1.06-.862 1.921-1.921 1.921M.437 11.91c0-.28.064-.556.19-.82a.394.394 0 0 1 .524-.187c.196.093.333.327.24.524a1.125 1.125 0 0 0-.113.484c0 1.103 1.658 1.965 3.684 1.965 2.026 0 3.696-.862 3.696-1.965 0-.182-.047-.362-.14-.538-.102-.192.013-.43.205-.532a.394.394 0 0 1 .532.164c.154.29.232.595.232.906 0 1.582-1.988 2.822-4.525 2.822-2.537 0-4.525-1.24-4.525-2.822z"/>
    </g>
</svg>
