<svg xmlns="http://www.w3.org/2000/svg" xmlns:xlink="http://www.w3.org/1999/xlink" width="10" height="15" viewBox="0 0 10 15">
    <defs>
        <path id="a" d="M0 .07h9.924v12.226H0z"/>
    </defs>
    <g fill="none" fill-rule="evenodd">
        <g transform="translate(0 .008)">
            <mask id="b" fill="#fff">
                <use xlink:href="#a"/>
            </mask>
            <path fill="#666" d="M4.962.858C2.662.858.79 2.66.79 4.874V4.9c-.002.02-.102 2.178 1.754 4.452 1.281 1.571 2.148 2.024 2.418 2.136.27-.112 1.137-.565 2.418-2.136C9.25 7.061 9.136 4.921 9.135 4.9v-.025C9.134 2.66 7.261.858 4.961.858zm0 11.438a.391.391 0 0 1-.082-.008c-.119-.026-1.209-.31-2.946-2.44C-.07 7.395-.008 5.085.003 4.864.009 2.22 2.23.07 4.963.07c2.73 0 4.953 2.15 4.959 4.793.01.221.071 2.531-1.931 4.986-1.738 2.13-2.828 2.413-2.947 2.439a.393.393 0 0 1-.082.008z" mask="url(#b)"/>
        </g>
        <path fill="#666" d="M4.962 3.904a1.135 1.135 0 0 0 0 2.268 1.135 1.135 0 0 0 0-2.268m0 3.055a1.923 1.923 0 0 1-1.921-1.92c0-1.06.862-1.922 1.921-1.922 1.06 0 1.921.862 1.921 1.921 0 1.06-.862 1.921-1.921 1.921M4.962 14.733c-2.537 0-4.525-1.24-4.525-2.822 0-.28.064-.557.19-.821a.394.394 0 0 1 .71.337 1.125 1.125 0 0 0-.112.484c0 1.103 1.711 2.034 3.737 2.034s3.737-.931 3.737-2.034c0-.182-.047-.362-.14-.538a.394.394 0 0 1 .696-.368c.154.29.232.595.232.906 0 1.582-1.988 2.822-4.525 2.822"/>
    </g>
</svg>
