<?xml version="1.0" encoding="UTF-8"?>
<svg width="20px" height="20px" viewBox="0 0 20 20" version="1.1" xmlns="http://www.w3.org/2000/svg" xmlns:xlink="http://www.w3.org/1999/xlink">
    <!-- Generator: Sketch 54.1 (76490) - https://sketchapp.com -->
    <title>iconmonstr-telegram-2 copy 5</title>
    <desc>Created with Sketch.</desc>
    <g id="iconmonstr-telegram-2-copy-5" stroke="none" stroke-width="1" fill="none" fill-rule="evenodd">
        <path d="M15.3200423,18.8112989 C13.6313211,17.5860137 10.6551218,15.3598451 10.6551218,15.3598451 C10.6551218,15.3598451 9.08889847,16.8681827 8.07516575,17.8435658 C7.89516881,18.0169673 7.64017316,18.0832678 7.39892727,18.0195173 C7.15893136,17.9557668 6.97518449,17.7683402 6.89643583,17.5299132 C6.26519659,15.6352474 5.05646719,11.9071162 5.05646719,11.9071162 C5.05646719,11.9071162 2.46651133,11.0694342 0.49404494,10.4689042 C0.209049797,10.3809284 0.0103031837,10.1195512 0.000303354143,9.81992373 C-0.00844649675,9.51902121 0.172800415,9.24489392 0.451545664,9.14034304 C4.8502207,7.47900415 15.6112873,3.36071971 19.1049778,2.04235869 C19.3312239,1.95693297 19.5862196,2.00283336 19.7699665,2.16093468 C19.9524633,2.32031101 20.0349619,2.56766308 19.9862128,2.80609007 C19.327474,5.96301647 17.5700039,14.75039 16.8462663,18.220969 C16.7775174,18.5473717 16.5500213,18.816399 16.2425266,18.9349749 C15.9337818,19.0548259 15.5887877,19.0063755 15.3200423,18.8112989 Z M7,11.3774154 L8.36144215,16 L8.6643904,13.072697 C8.6643904,13.072697 13.9252267,8.18968515 16.9255094,5.40511634 C17.0131089,5.32373281 17.0252755,5.18725889 16.9522759,5.0908507 C16.8792763,4.99444252 16.7466604,4.97190554 16.6468943,5.03701237 C13.1708977,7.3220115 7,11.3774154 7,11.3774154 Z" id="Combined-Shape" fill="#FFFFFF"></path>
    </g>
</svg>