<?xml version="1.0" encoding="UTF-8"?>
<svg width="20px" height="20px" viewBox="0 0 20 20" version="1.1" xmlns="http://www.w3.org/2000/svg" xmlns:xlink="http://www.w3.org/1999/xlink">
    <!-- Generator: Sketch 54.1 (76490) - https://sketchapp.com -->
    <title>iconmonstr-twitter-1 copy 3</title>
    <desc>Created with Sketch.</desc>
    <g id="iconmonstr-twitter-1-copy-3" stroke="none" stroke-width="1" fill="none" fill-rule="evenodd">
        <g id="iconmonstr-twitter-1" transform="translate(0.000000, 2.000000)" fill="#FFFFFF" fill-rule="nonzero">
            <path d="M20,2.01256153 C19.2641667,2.35423503 18.4733333,2.58434167 17.6433333,2.68806399 C18.4908333,2.15724979 19.1416667,1.31614028 19.4475,0.313781788 C18.655,0.805373257 17.7766667,1.16273585 16.8416667,1.355363 C16.0941667,0.521226415 15.0266667,0 13.8466667,0 C11.1975,0 9.25083333,2.58521329 9.84916667,5.2689192 C6.44,5.0902379 3.41666667,3.38187039 1.3925,0.785326087 C0.3175,2.71421247 0.835,5.23754102 2.66166667,6.51533019 C1.99,6.49266817 1.35666667,6.30004102 0.804166667,5.97841468 C0.759166667,7.96657096 2.12166667,9.82659967 4.095,10.2406173 C3.5175,10.4044811 2.885,10.4428322 2.24166667,10.3138331 C2.76333333,12.0187141 4.27833333,13.2590238 6.075,13.2938884 C4.35,14.7085213 2.17666667,15.340443 0,15.0719852 C1.81583333,16.2896329 3.97333333,17 6.29,17 C13.9083333,17 18.2125,10.2702523 17.9525,4.23431091 C18.7541667,3.62853774 19.45,2.8728466 20,2.01256153 Z" id="Path"></path>
        </g>
    </g>
</svg>