<?xml version="1.0" encoding="UTF-8"?>
<svg width="20px" height="20px" viewBox="0 0 20 20" version="1.1" xmlns="http://www.w3.org/2000/svg" xmlns:xlink="http://www.w3.org/1999/xlink">
    <!-- Generator: Sketch 54.1 (76490) - https://sketchapp.com -->
    <title>Combined Shape Copy 3</title>
    <desc>Created with Sketch.</desc>
    <g id="Combined-Shape-Copy-3" stroke="none" stroke-width="1" fill="none" fill-rule="evenodd">
        <path d="M10,2 C15.5228846,2 20,5.25159191 20,9.26256467 C20,13.273626 15.5228846,16.5251293 10,16.5251293 C9.39384615,16.5251293 8.80028846,16.4860709 8.22384615,16.4108768 C7.64682692,16.7854303 4.31307692,18.942412 3.99846154,18.9828875 C3.99846154,18.9828875 3.86942308,19.0291199 3.75971154,18.9696023 C3.65,18.9100847 3.66990385,18.7540282 3.66990385,18.7540282 C3.70298077,18.5463365 4.53413462,15.9025858 4.68730769,15.415994 C1.87173077,14.13114 -3.37507799e-14,11.8557431 -3.37507799e-14,9.26256467 C-3.37507799e-14,5.25159191 4.47711538,2 10,2 Z M4.3302041,12 C4.693058,12 4.98814409,11.7581176 4.98814409,11.4607059 L4.98814409,8.10588235 L6.01474977,8.10588235 C6.3706953,8.10588235 6.66040821,7.85778824 6.66040821,7.55294118 C6.66040821,7.24809412 6.37080496,7 6.01474977,7 L2.64565844,7 C2.28971291,7 2,7.24809412 2,7.55294118 C2,7.85778824 2.28960325,8.10588235 2.64565844,8.10588235 L3.67226412,8.10588235 L3.67226412,11.4607059 C3.67226412,11.7581176 3.9673502,12 4.3302041,12 Z M10.0994605,11.9926588 C10.0994605,11.9926588 10.0993508,11.9926588 10.0994605,11.9926588 C10.2437605,11.9927534 10.3863962,11.966208 10.517691,11.9148235 C10.6990631,11.8432 10.8734172,11.6456471 10.6731842,11.1118118 L9.10004966,7.55802353 C8.98896746,7.28705882 8.65221185,7.00837647 8.22246738,7.00009412 C7.79392914,7.00847059 7.45717353,7.28705882 7.34631064,7.55745882 L5.7725182,11.1128471 C5.57272376,11.6454588 5.74707786,11.8429176 5.92844998,11.9147294 C6.05971348,11.9662053 6.20236472,11.9927857 6.34668049,11.9926588 C6.62104147,11.9926588 6.83081466,11.8971294 6.89386725,11.7436235 L7.21987651,11.0111059 L9.22615483,11.0112 L9.55194477,11.7432471 C9.61521667,11.8970353 9.82509952,11.9926588 10.0994605,11.9926588 Z M8.88018805,10.0109176 L7.56584328,10.0109176 L8.22301567,8.40856471 L8.88018805,10.0109176 Z M11.7320289,11.9176471 L13.8429197,11.9176471 C14.190641,11.9176471 14.4734455,11.6853647 14.4734455,11.4 C14.4734455,11.1146353 14.190641,10.8823529 13.8429197,10.8823529 L12.4447972,10.8823529 L12.4447972,7.56470588 C12.4447972,7.25327059 12.1434607,7 11.7731502,7 C11.4028396,7 11.1015031,7.25327059 11.1015031,7.56470588 L11.1015031,11.4 C11.1015031,11.6853647 11.3843076,11.9176471 11.7320289,11.9176471 Z M15.3873241,11.9926588 C15.7506579,11.9922439 16.0450606,11.7395178 16.0454834,11.4276706 L16.0454834,10.1955765 L16.2737886,9.99962353 L17.8167675,11.7543529 C17.9406683,11.8963839 18.1356291,11.9796493 18.3423519,11.9788235 C18.4852648,11.9791233 18.624326,11.9390736 18.7381028,11.8648471 C18.8777619,11.7749734 18.9696935,11.6408564 18.9933835,11.4924235 C19.0181788,11.3440831 18.9726793,11.1934011 18.867059,11.0740706 L17.2475398,9.23256471 L18.7468753,7.94588235 C18.8499526,7.85731765 18.9016009,7.73524706 18.8920608,7.60207059 C18.8826303,7.47002353 18.8138756,7.34287059 18.6986264,7.24404706 C18.5750433,7.13807059 18.4101197,7.07727059 18.245854,7.07727059 C18.1050549,7.07727059 17.9753311,7.12188235 17.8809167,7.20291765 L16.0452641,8.77844706 L16.0452641,7.56470588 C16.0452641,7.25327059 15.750178,7 15.3873241,7 C15.0244702,7 14.7293842,7.25327059 14.7293842,7.56470588 L14.7293842,11.4279529 C14.7293842,11.7393882 15.0244702,11.9926588 15.3873241,11.9926588 Z" id="Combined-Shape-Copy" fill="#FFFFFF" fill-rule="nonzero"></path>
    </g>
</svg>